<?xml version='1.0' encoding='iso-8859-1'?>
<svg version="1.1" xmlns="http://www.w3.org/2000/svg" viewBox="0 0 463 463" xmlns:xlink="http://www.w3.org/1999/xlink" enable-background="new 0 0 463 463">
  <path d="m438.999,311.473c0-0.013 0.001-0.025 0.001-0.038 0-11.423-13.45-23.779-19.233-28.561-5.738-4.745-20.612-15.781-34.778-15.781-7.571,0-21.729,4.376-46.102,12.11-25.258,8.015-57.676,18.296-84.699,22.641 29.388-22.444 71.998-44.531 104.723-61.49 29.34-15.205 46.268-24.136 52.998-30.865 4.169-4.169 14.154-16.912 16.826-45.131 0.695-7.335 2.176-32.055-7.93-42.161-10.105-10.106-34.825-8.625-42.161-7.93-28.22,2.672-40.962,12.657-45.131,16.826-6.729,6.729-15.66,23.657-30.865,52.998-17.158,33.108-39.565,76.329-62.279,105.745 5.006-43.759 22.837-99.973 36.409-142.742 10.578-33.342 18.222-57.432 18.222-68.896 0-14.06-8.633-32.892-23.093-50.378-5.397-6.527-24.261-27.82-40.407-27.82s-35.01,21.293-40.407,27.82c-14.46,17.486-23.093,36.318-23.093,50.378 0,11.464 7.644,35.554 18.224,68.896 13.571,42.769 31.402,98.982 36.409,142.742-22.714-29.415-45.121-72.637-62.279-105.745-15.205-29.34-24.136-46.268-30.865-52.998-4.169-4.169-16.912-14.154-45.131-16.826-7.335-0.696-32.055-2.176-42.161,7.93-10.106,10.106-8.625,34.825-7.93,42.161 2.672,28.22 12.657,40.962 16.826,45.131 6.729,6.729 23.657,15.66 52.998,30.865 32.724,16.959 75.335,39.046 104.723,61.49-27.024-4.345-59.442-14.627-84.699-22.641-24.373-7.734-38.531-12.11-46.102-12.11-14.166,0-29.041,11.036-34.778,15.781-5.785,4.782-19.235,17.138-19.235,28.561 0,0.013 0.001,0.025 0.001,0.038 0,0.009-0.001,0.018-0.001,0.027 0,0.056 0.007,0.109 0.008,0.165 0.178,11.358 13.481,23.58 19.225,28.331 5.738,4.745 20.612,15.781 34.778,15.781 7.571,0 21.729-4.375 46.102-12.109 22.379-7.101 50.381-15.984 75.271-20.939-7.951,4.542-16.183,8.81-23.287,12.491-13.045,6.76-20.006,10.441-23.288,13.723-6.246,6.245-7.891,17.175-8.309,21.584-0.536,5.657-0.653,15.928 4.58,21.161 3.896,3.897 10.585,4.827 16.083,4.827 1.886,0 3.633-0.11 5.078-0.247 4.409-0.417 15.339-2.063 21.584-8.309 3.282-3.282 6.963-10.242 13.723-23.288 5.257-10.145 11.709-22.591 18.45-33.229v124.058c0,4.142 3.358,7.5 7.5,7.5s7.5-3.358 7.5-7.5v-124.057c6.74,10.638 13.192,23.084 18.45,33.229 6.76,13.045 10.441,20.006 13.723,23.288 6.245,6.246 17.175,7.891 21.584,8.309 1.445,0.137 3.191,0.247 5.078,0.247 5.498,0 12.187-0.931 16.083-4.827 5.233-5.233 5.116-15.504 4.58-21.161-0.417-4.409-2.063-15.339-8.309-21.584-3.282-3.282-10.242-6.963-23.288-13.723-7.104-3.681-15.337-7.949-23.287-12.491 24.89,4.956 52.892,13.838 75.271,20.939 24.373,7.734 38.531,12.109 46.102,12.109 14.166,0 29.041-11.036 34.778-15.781 5.744-4.75 19.047-16.973 19.225-28.331 0.001-0.055 0.008-0.109 0.008-0.165 0.004-0.01 0.003-0.019 0.003-0.028zm-95.576-17.973c18.487-5.866 35.949-11.407 41.565-11.407 6.206,0 16.041,4.791 25.056,12.206 4.29,3.529 7.494,6.88 9.744,9.702h-110.387c11.999-3.514 23.604-7.196 34.022-10.501zm70.377-130.557c-1.513,15.97-6.302,29.741-12.5,35.939-5.415,5.415-26.728,16.46-49.293,28.154-16.743,8.677-36.018,18.668-54.935,29.432l116.044-116.044c1.041,5.055 1.631,12.525 0.684,22.519zm-97.836,28.049c11.694-22.565 22.739-43.878 28.154-49.293 6.198-6.197 19.969-10.987 35.939-12.5 3.522-0.333 6.733-0.477 9.636-0.477 5.27,0 9.52,0.473 12.778,1.134l-115.768,115.768c10.698-18.82 20.63-37.978 29.261-54.632zm-55.616-153.613c12.122,14.659 19.652,30.299 19.652,40.819 0,9.141-8.511,35.963-17.521,64.359-7.476,23.559-16.215,51.124-23.479,78.666v-203.406c7.137,4.358 15.86,12.926 21.348,19.562zm-77.348,40.819c0-10.52 7.53-26.16 19.652-40.818 8.051-9.736 15.709-16.086 21.348-19.454v203.297c-7.264-27.542-16.003-55.107-23.479-78.666-9.01-28.396-17.521-55.218-17.521-64.359zm-100.057,51.002c15.97,1.513 29.741,6.302 35.939,12.5 5.415,5.415 16.46,26.728 28.154,49.293 8.63,16.654 18.563,35.812 29.26,54.632l-115.767-115.768c3.258-0.661 7.507-1.134 12.778-1.134 2.902,0 6.115,0.143 9.636,0.477zm-21.244,69.682c-6.197-6.198-10.987-19.969-12.5-35.939-0.947-9.995-0.357-17.465 0.684-22.519l116.044,116.044c-18.917-10.764-38.192-20.755-54.935-29.432-22.565-11.694-43.878-22.739-49.293-28.154zm-8.743,95.416c9.015-7.415 18.85-12.206 25.056-12.206 5.617,0 23.079,5.541 41.565,11.407 10.418,3.306 22.023,6.987 34.022,10.5h-110.388c2.251-2.82 5.455-6.172 9.745-9.701zm66.621,35.071c-18.487,5.866-35.949,11.407-41.565,11.407-6.206,0-16.041-4.791-25.056-12.206-4.224-3.474-7.394-6.777-9.639-9.57h109.833c-11.84,3.473-23.285,7.105-33.573,10.369zm72.655,28.401c-4.095,7.902-9.191,17.736-11.012,19.583-3.726,3.725-17.048,5.089-21.402,3.597-1.493-4.356-0.127-17.677 3.597-21.401 1.848-1.821 11.682-6.918 19.584-11.013 6.228-3.228 12.973-6.724 19.66-10.426-3.703,6.687-7.199,13.432-10.427,19.66zm107.352,1.778c3.725,3.725 5.09,17.046 3.598,21.402-4.358,1.493-17.677,0.128-21.401-3.597-1.821-1.848-6.918-11.682-11.013-19.584-3.228-6.228-6.724-12.973-10.426-19.66 6.687,3.703 13.432,7.199 19.66,10.426 7.901,4.096 17.735,9.193 19.582,11.013zm110.46-30.978c-9.015,7.415-18.85,12.206-25.056,12.206-5.617,0-23.079-5.541-41.565-11.407-10.288-3.264-21.733-6.896-33.572-10.369h109.833c-2.245,2.794-5.416,6.096-9.64,9.57z"/>
</svg>
