<svg xmlns="http://www.w3.org/2000/svg" width="32" height="32" enable-background="new 0 0 32 32" viewBox="0 0 32 32"><path fill="#80D8FF" d="M22.565,4.508c-2.73,0-5.139,1.38-6.565,3.48c-1.427-2.101-3.835-3.48-6.566-3.48
					C5.052,4.508,1.5,8.06,1.5,12.442c0,9.302,14.5,17.05,14.5,17.05s14.5-7.748,14.5-17.05C30.5,8.06,26.948,4.508,22.565,4.508z"/><path fill="#FFF176" d="M2.185,16C5.052,23.639,16,29.492,16,29.492S26.948,23.639,29.815,16c0,0-2.44,2-13.815,2
					S2.185,16,2.185,16z"/><path fill="#65C7EA" d="M29.945,9.542C29.979,9.838,30,10.138,30,10.442c0,3.341-1.871,6.481-4.269,9.135
					c-5.474,6.057-15.124,5.976-20.563-0.112c-1.528-1.71-2.831-3.619-3.556-5.651C2.913,22.492,16,29.492,16,29.492
					s14.5-7.748,14.5-17.05C30.5,11.418,30.299,10.441,29.945,9.542z"/><path fill="#EAD960" d="M29.815,16c0,0-0.469,0.384-1.953,0.815c-0.625,0.965-1.345,1.892-2.131,2.762
					c-5.474,6.057-15.124,5.976-20.563-0.112C4.3,18.492,3.52,17.45,2.862,16.363C2.375,16.149,2.185,16,2.185,16
					C5.052,23.639,16,29.492,16,29.492S26.948,23.639,29.815,16z"/><path fill="#9FE6FF" d="M30.302,10.697c-0.796-3.542-3.954-6.189-7.736-6.189c-2.73,0-5.139,1.38-6.565,3.48
				c-1.427-2.101-3.835-3.48-6.566-3.48C5.052,4.508,1.5,8.06,1.5,12.442c0,1.333,0.305,2.632,0.814,3.882l0.001,0.001
				c-0.44-1.72-0.472-3.511,0.242-5.353C3.47,8.616,5.534,6.821,7.992,6.238c3.253-0.771,6.283,0.46,8.106,2.711
				c0.201,0.247,0.578,0.278,0.778,0.029c1.454-1.812,3.686-2.971,6.188-2.971C26.291,6.008,29.061,7.935,30.302,10.697z"/><path fill="#455A64" d="M5.448,6.08c-0.173,0-0.341-0.09-0.434-0.25C4.876,5.591,4.958,5.285,5.198,5.147L5.35,5.062
				c0.243-0.137,0.545-0.045,0.679,0.196C6.162,5.5,6.074,5.804,5.832,5.937L5.698,6.013C5.619,6.059,5.533,6.08,5.448,6.08z"/><path fill="#455A64" d="M16,29.992c-0.081,0-0.162-0.02-0.236-0.059C15.162,29.611,1,21.935,1,12.442
				c0-2.308,0.914-4.462,2.573-6.065C3.772,6.186,4.088,6.19,4.28,6.389c0.192,0.199,0.187,0.516-0.012,0.707
				C2.806,8.51,2,10.408,2,12.442c0,8.261,12.143,15.431,14,16.479c1.855-1.048,14-8.223,14-16.479c0-4.1-3.335-7.435-7.435-7.435
				c-2.465,0-4.765,1.219-6.152,3.262c-0.187,0.273-0.641,0.273-0.827,0c-1.387-2.043-3.687-3.262-6.153-3.262
				c-0.601,0-1.197,0.071-1.771,0.212c-0.27,0.063-0.539-0.098-0.605-0.366C6.992,4.585,7.156,4.314,7.424,4.249
				c0.653-0.16,1.329-0.241,2.01-0.241c2.564,0,4.971,1.162,6.566,3.142c1.595-1.979,4.001-3.142,6.565-3.142
				c4.651,0,8.435,3.784,8.435,8.435c0,9.492-14.162,17.169-14.764,17.491C16.162,29.973,16.081,29.992,16,29.992z"/></svg>